<?xml version="1.0" standalone="no"?>
<!DOCTYPE svg PUBLIC "-//W3C//DTD SVG 20010904//EN"
 "http://www.w3.org/TR/2001/REC-SVG-20010904/DTD/svg10.dtd">
<svg version="1.0" xmlns="http://www.w3.org/2000/svg"
 width="640.000000pt" height="640.000000pt" viewBox="0 0 640.000000 640.000000"
 preserveAspectRatio="xMidYMid meet">
<metadata>
Created by potrace 1.16, written by Peter Selinger 2001-2019
</metadata>
<g transform="translate(0.000000,640.000000) scale(0.100000,-0.100000)"
fill="#000000" stroke="none">
<path d="M2650 6369 c-16 -33 -31 -43 -120 -79 -30 -12 -68 -28 -83 -36 -16
-8 -40 -14 -53 -14 -38 0 -74 -28 -74 -59 0 -16 -8 -31 -21 -39 -17 -11 -20
-20 -15 -43 5 -25 3 -29 -17 -29 -13 0 -46 -11 -74 -25 -51 -26 -69 -50 -75
-105 -2 -14 -10 -25 -18 -26 -8 -1 -35 -2 -60 -2 -41 -2 -49 -7 -105 -66 -33
-35 -70 -69 -82 -75 -13 -6 -23 -18 -23 -26 0 -19 38 -91 56 -106 8 -6 14 -22
14 -34 0 -28 -50 -110 -106 -173 -66 -76 -104 -138 -104 -171 0 -17 -6 -50
-14 -73 -8 -24 -17 -63 -20 -88 -7 -43 -38 -153 -77 -272 -10 -32 -19 -69 -19
-83 0 -21 -5 -25 -29 -25 -64 0 -121 39 -145 100 -17 43 -83 110 -108 110 -24
0 -30 -28 -19 -86 12 -60 32 -117 60 -169 29 -54 28 -116 -3 -151 -20 -24 -30
-28 -77 -27 -52 1 -54 2 -108 62 -44 48 -64 63 -93 68 -57 9 -123 -19 -174
-73 -43 -47 -43 -47 -96 -41 -77 10 -109 44 -112 124 -2 53 -7 66 -38 102 -39
46 -52 94 -37 143 16 57 12 75 -19 81 -16 3 -37 -1 -51 -10 -20 -13 -25 -13
-32 -2 -8 11 -11 11 -20 -4 -5 -9 -23 -23 -38 -31 -24 -13 -31 -13 -57 0 -42
22 -49 31 -35 48 7 8 10 24 6 34 -3 12 1 26 10 36 15 14 15 17 1 22 -23 9 -46
61 -46 103 0 41 23 81 47 81 16 0 53 -36 53 -52 0 -14 21 -9 51 12 16 12 34
20 41 18 21 -4 84 43 97 73 9 21 9 78 0 252 -8 154 -8 235 -1 255 12 36 0 107
-27 155 -11 19 -21 48 -23 63 -3 26 -7 29 -42 32 -31 3 -44 -2 -66 -23 -23
-22 -29 -24 -32 -11 -2 13 -8 12 -32 -9 -17 -14 -39 -27 -50 -30 -77 -15 -74
-12 -81 -64 -5 -39 -15 -58 -46 -89 -21 -22 -39 -49 -39 -59 0 -10 -3 -28 -6
-40 -6 -20 -2 -23 22 -23 38 0 50 -10 49 -40 0 -20 -6 -26 -28 -28 -17 -2 -27
-9 -27 -20 0 -13 -9 -17 -34 -17 -19 0 -37 3 -40 5 -3 3 -23 4 -45 2 l-41 -4
0 -2799 0 -2799 765 0 765 0 0 38 c0 34 -3 38 -43 55 -23 9 -61 17 -85 17 -38
0 -42 2 -42 25 0 23 4 25 40 25 29 0 40 -4 40 -15 0 -18 8 -18 40 0 l25 14
-32 1 c-23 0 -33 5 -33 15 0 11 -11 15 -38 15 -26 0 -46 7 -62 23 l-25 22 23
3 c18 3 22 10 22 43 l0 39 50 0 c28 0 50 5 50 10 0 6 -4 10 -10 10 -5 0 -10
13 -10 29 0 27 -4 30 -37 34 -21 2 -14 3 15 1 57 -3 58 -1 37 36 -8 14 -14 40
-15 58 0 31 1 32 40 32 29 0 40 4 40 15 0 25 111 21 133 -5 12 -15 29 -20 62
-20 38 0 45 3 45 20 0 17 7 20 40 20 38 0 40 -2 40 -30 0 -18 5 -30 13 -30 8
0 19 -12 26 -26 11 -25 13 -26 30 -10 18 17 20 16 26 -3 3 -12 11 -21 16 -21
15 0 24 33 11 38 -14 4 -16 62 -2 62 6 0 10 5 10 10 0 6 -11 10 -25 10 -20 0
-25 -5 -25 -26 0 -14 -4 -23 -9 -20 -5 3 -7 14 -4 24 3 12 -4 23 -21 32 -14 7
-31 26 -38 42 -11 24 -19 28 -50 28 -29 0 -38 -4 -38 -17 0 -14 -2 -15 -12 -4
-10 11 -10 14 0 18 26 10 10 23 -28 23 -22 0 -40 4 -40 9 0 5 -11 12 -25 15
-14 4 -25 13 -25 21 0 8 -7 15 -15 15 -12 0 -15 13 -15 56 l0 56 88 -7 c48 -4
91 -11 96 -16 6 -6 3 -9 -7 -9 -9 0 -17 -4 -17 -10 0 -12 10 -13 29 -1 10 6
32 3 65 -10 28 -10 61 -19 72 -19 13 0 24 -8 27 -20 3 -12 14 -20 26 -20 12 0
21 -6 21 -14 0 -14 52 -32 79 -27 7 1 10 -2 7 -8 -4 -6 9 -13 30 -17 22 -4 39
-3 43 4 9 16 97 33 127 26 17 -4 29 -2 35 7 7 11 9 10 9 -3 0 -10 5 -18 10
-18 12 0 12 2 0 35 -5 14 -14 23 -20 20 -5 -3 -7 0 -4 8 7 19 -32 30 -116 32
-89 3 -90 3 -90 18 0 25 -83 97 -112 97 -7 0 -19 9 -26 20 -7 11 -21 20 -31
20 -17 0 -131 117 -131 134 0 4 -12 19 -26 34 -14 15 -32 39 -40 55 -8 15 -21
27 -29 27 -9 0 -15 10 -15 24 0 14 -8 31 -18 38 -28 20 -33 34 -21 65 l11 28
19 -38 c11 -21 28 -46 37 -56 9 -10 33 -39 52 -64 19 -26 41 -46 48 -47 6 0
12 -5 12 -11 0 -14 61 -71 68 -64 3 3 0 20 -6 38 -16 46 -15 109 3 133 9 12
14 14 15 6 0 -7 5 -10 10 -7 15 9 1 54 -26 80 -27 27 -35 67 -10 46 8 -7 32
-38 53 -69 21 -31 62 -89 91 -129 28 -40 52 -77 52 -82 0 -6 4 -11 9 -11 5 0
24 -21 41 -46 27 -41 28 -46 11 -41 -14 3 -18 1 -14 -9 3 -8 10 -14 15 -14 6
0 8 -12 4 -28 l-5 -27 13 28 13 28 36 -42 c41 -46 45 -59 20 -59 -19 0 -12
-10 9 -14 20 -2 88 -59 88 -73 0 -7 18 -31 40 -55 22 -24 42 -55 45 -70 4 -15
19 -35 33 -44 15 -8 77 -79 137 -156 61 -77 115 -145 121 -151 5 -7 40 -55 78
-107 37 -52 73 -103 81 -112 7 -9 18 -26 25 -37 11 -21 16 -21 385 -21 289 0
375 3 379 13 5 9 7 9 12 0 4 -10 58 -13 220 -13 196 0 236 5 204 25 -5 3 -10
1 -10 -5 0 -6 -17 6 -37 27 -30 30 -39 34 -41 20 -4 -20 -18 -22 -29 -3 -4 7
-27 23 -50 35 -27 13 -51 36 -65 61 -21 37 -64 65 -96 63 -6 0 -25 16 -42 37
-16 21 -43 43 -60 50 -16 7 -30 20 -30 29 0 35 -37 78 -74 85 -31 6 -36 11
-36 35 0 30 -15 41 -56 41 -15 0 -24 6 -24 15 0 8 6 15 13 15 9 0 9 2 -1 8 -7
5 -10 17 -6 28 5 16 4 17 -6 4 -9 -12 -13 -12 -17 -2 -4 10 -8 10 -18 2 -11
-9 -16 -3 -26 29 -8 28 -18 41 -30 41 -23 0 -69 21 -69 31 0 5 -6 6 -12 4 -31
-10 -114 -13 -128 -5 -8 5 -13 10 -10 10 68 5 226 32 228 40 2 6 8 7 13 4 5
-3 26 4 45 15 19 12 43 21 52 21 9 0 28 9 42 20 14 11 31 20 37 20 18 0 243
139 271 167 24 24 52 31 52 13 0 -5 7 -10 15 -10 8 0 15 5 15 10 0 6 -7 10
-15 10 -24 0 -18 9 38 61 93 89 107 104 113 123 3 10 15 29 27 42 33 38 77
151 77 197 0 23 -6 51 -13 63 -59 100 -75 102 -31 3 26 -57 26 -58 9 -108 -9
-28 -20 -49 -25 -46 -4 3 -13 -2 -20 -10 -17 -20 -33 -19 -60 5 -13 11 -27 20
-32 20 -4 0 -7 6 -5 13 1 7 -7 11 -20 9 -13 -2 -23 2 -23 7 0 6 4 11 9 11 5 0
23 28 40 63 33 68 40 134 18 174 -13 24 -98 115 -125 135 -24 17 -112 134
-112 147 0 6 -4 11 -10 11 -5 0 -10 5 -10 11 0 7 -6 17 -14 23 -19 15 -31 56
-16 56 6 0 13 -7 16 -15 4 -8 16 -15 28 -15 19 1 18 2 -6 16 -16 8 -28 19 -28
24 0 6 -11 10 -24 10 -29 0 -43 17 -27 33 8 8 11 8 11 -2 0 -7 4 -10 10 -6 10
6 3 35 -8 33 -17 -3 -68 17 -78 30 -12 17 -34 8 -34 -13 0 -7 22 -55 48 -106
41 -80 54 -109 61 -144 1 -3 10 -21 21 -40 11 -20 20 -40 20 -46 0 -6 11 -25
25 -43 14 -18 25 -37 25 -43 0 -15 31 -73 39 -73 9 0 37 -82 45 -131 5 -26 2
-40 -9 -49 -8 -7 -15 -27 -15 -44 0 -23 -10 -43 -35 -70 -39 -43 -52 -73 -36
-89 8 -8 11 -6 11 6 0 20 11 22 28 5 18 -18 15 -28 -8 -28 -14 0 -20 -7 -20
-23 0 -13 4 -27 8 -32 5 -6 6 -37 4 -69 -2 -37 -7 -54 -12 -45 -7 10 -13 5
-27 -19 -11 -20 -26 -32 -39 -32 -12 0 -26 -6 -33 -13 -8 -11 -4 -13 22 -9 31
4 31 3 11 -11 -11 -9 -37 -19 -58 -22 -32 -6 -37 -11 -34 -29 4 -19 0 -21 -41
-19 -25 1 -36 -1 -23 -3 50 -12 3 -44 -64 -44 -33 0 -41 13 -35 52 0 5 -4 8
-9 8 -6 0 -11 -7 -11 -15 -1 -8 -3 -18 -4 -22 -2 -5 -6 -18 -10 -31 -5 -16
-15 -22 -36 -22 -16 0 -29 -4 -29 -10 0 -5 -6 -10 -14 -10 -11 0 -12 8 -5 43
6 23 16 47 24 53 18 14 20 28 3 17 -15 -9 -148 -21 -148 -13 0 3 -54 6 -121 6
l-120 -1 -39 42 c-21 23 -39 46 -41 51 -2 5 -18 27 -36 48 -29 35 -97 122
-204 259 -125 160 -218 277 -263 330 -28 33 -55 64 -59 70 -143 184 -298 369
-416 498 -45 49 -81 95 -81 102 0 8 -9 20 -20 28 -17 12 -19 22 -15 68 3 30 7
98 10 152 2 54 9 105 16 113 7 9 9 27 4 50 -4 23 -2 39 4 44 6 3 12 29 12 56
2 81 4 85 41 66 17 -8 53 -17 80 -20 39 -4 48 -8 48 -23 0 -11 6 -19 13 -19
10 -1 72 -86 102 -141 5 -10 19 -22 31 -28 12 -5 30 -24 40 -40 10 -17 26 -34
36 -37 10 -3 18 -12 18 -20 0 -8 7 -14 15 -14 8 0 19 -9 25 -20 6 -11 15 -20
21 -20 6 0 27 -17 47 -38 35 -35 68 -55 135 -81 15 -6 27 -17 27 -25 0 -13 31
-27 75 -32 11 -1 40 -7 65 -14 56 -14 124 -4 116 17 -5 12 2 14 41 10 54 -7
145 -22 184 -32 16 -4 29 -2 33 4 4 7 -1 11 -14 11 -11 0 -28 4 -38 9 -9 5
-34 17 -54 26 -21 9 -38 22 -38 29 0 8 -16 16 -35 19 -41 7 -95 42 -95 63 0 8
-7 14 -15 14 -8 0 -15 4 -15 8 0 4 -18 19 -40 32 -22 14 -40 33 -40 43 0 9 -4
17 -8 17 -12 0 -108 94 -115 113 -4 10 -17 17 -32 17 -20 0 -25 -5 -25 -24 0
-53 -24 -72 -50 -41 -7 8 -22 15 -33 15 -12 0 -31 10 -42 23 -11 12 -29 27
-39 33 -11 5 -20 20 -21 32 -2 25 -42 72 -62 72 -7 0 -13 6 -13 13 0 8 -9 22
-20 32 -11 10 -20 24 -20 31 0 7 -8 15 -17 19 -20 6 -80 97 -108 163 -10 23
-22 42 -27 42 -4 0 -8 11 -8 24 0 16 -7 26 -21 29 -17 5 -20 11 -17 32 3 14 1
28 -3 31 -5 3 -9 18 -9 33 0 32 -27 119 -44 141 -16 20 -20 121 -6 130 7 4 12
50 13 121 1 63 7 117 12 122 6 4 5 10 -3 15 -9 6 -11 18 -6 36 4 16 0 39 -10
61 -10 19 -14 40 -11 45 3 6 -1 13 -9 16 -19 7 -22 69 -4 111 6 15 11 30 11
33 -7 54 -11 153 -7 164 14 36 98 25 133 -17 6 -8 18 -55 27 -103 31 -180 74
-273 139 -305 101 -50 224 -70 424 -70 155 0 206 -8 151 -22 -14 -4 -20 -14
-20 -35 0 -29 28 -92 42 -92 3 0 4 -8 2 -17 -3 -10 8 -43 23 -73 22 -43 34
-55 51 -54 12 0 22 -5 22 -12 0 -16 79 -34 102 -22 9 4 26 8 37 8 26 0 26 8 2
37 -14 16 -35 24 -75 29 -42 5 -61 13 -75 30 -10 13 -30 29 -45 35 -23 11 -26
18 -26 59 0 52 20 81 77 115 18 10 37 31 43 46 7 15 27 45 46 66 30 33 100
164 145 271 8 17 17 32 21 32 5 0 8 9 8 20 0 55 92 81 141 40 20 -16 21 -19 7
-20 -24 0 -23 -11 7 -68 13 -26 36 -92 50 -146 36 -134 75 -195 146 -226 85
-36 228 -52 444 -48 185 3 191 4 248 31 49 24 72 46 114 106 41 58 -79 -551
-138 -706 -32 -83 -32 -90 -3 -130 16 -23 16 -23 -18 -23 -42 0 -72 -20 -104
-71 -29 -47 -48 -93 -35 -84 11 6 51 -42 51 -61 0 -7 9 -18 19 -24 21 -11 39
8 76 80 20 39 30 49 68 74 33 22 33 28 2 62 -32 35 -32 56 2 72 42 19 48 15
49 -28 1 -22 -2 -40 -7 -40 -9 0 23 -52 64 -104 12 -16 24 -33 25 -37 2 -5 14
-9 27 -9 14 0 29 -9 35 -19 15 -30 12 -134 -5 -157 -14 -19 -15 -19 -34 5 -22
29 -51 22 -51 -12 0 -31 -17 -51 -62 -72 -37 -17 -75 -14 -64 4 3 5 -1 14 -9
21 -11 9 -25 10 -57 2 -46 -12 -62 -8 -54 14 9 22 -33 65 -53 54 -9 -5 -26 -8
-36 -7 -16 2 -20 -5 -21 -33 l0 -35 -70 2 c-38 2 -79 5 -91 8 -33 8 -173 -126
-173 -165 0 -15 -7 -44 -15 -63 -8 -20 -15 -48 -15 -62 0 -16 6 -25 15 -25 8
0 15 -7 15 -16 0 -10 -6 -14 -14 -11 -21 8 -37 -16 -34 -51 1 -22 6 -28 14
-22 7 7 31 -3 71 -29 52 -33 60 -43 56 -64 -4 -19 6 -35 44 -74 26 -27 56 -61
66 -76 14 -22 21 -26 37 -17 10 5 28 10 39 10 22 0 25 10 15 46 -4 15 -12 20
-28 17 -15 -3 -25 1 -30 12 -5 14 -2 16 19 11 14 -4 45 -9 70 -13 54 -7 60 9
18 44 -27 21 -27 22 -6 23 30 0 94 -31 90 -44 -2 -6 6 -24 19 -41 72 -93 91
-114 108 -118 10 -3 15 -10 12 -16 -4 -5 3 -12 14 -16 11 -3 20 -14 21 -23 0
-11 3 -12 6 -4 2 6 10 12 17 12 22 0 66 -25 66 -37 0 -7 5 -13 10 -13 6 0 10
-6 10 -13 0 -26 33 -80 52 -85 10 -2 25 -17 34 -33 15 -30 49 -39 57 -16 3 9
9 9 26 0 11 -7 27 -13 35 -13 7 0 21 -15 30 -34 9 -19 29 -48 46 -66 16 -17
42 -59 56 -91 15 -33 35 -64 46 -70 10 -5 18 -20 18 -32 0 -13 9 -33 20 -45
11 -12 20 -30 20 -42 0 -11 5 -20 10 -20 6 0 10 -11 10 -25 0 -15 6 -25 15
-25 30 0 63 -22 58 -40 -3 -11 2 -19 16 -23 14 -3 18 -11 14 -25 -3 -14 3 -25
21 -37 14 -9 30 -14 35 -11 5 4 12 2 16 -4 10 -17 25 -11 25 10 0 11 -4 20 -9
20 -5 0 -13 10 -17 23 l-8 22 -7 -25 c-6 -22 -7 -22 -8 -4 -1 22 34 61 42 47
2 -4 7 -20 11 -35 3 -16 13 -28 21 -28 20 0 19 36 0 44 -8 3 -15 12 -15 19 0
8 -9 22 -20 32 -11 10 -20 27 -20 37 0 11 -4 16 -10 13 -5 -3 -10 -2 -10 4 0
5 5 11 11 13 8 3 6 9 -4 20 -21 20 -57 85 -57 101 0 10 -16 47 -53 121 -25 51
-47 85 -76 116 -17 19 -31 39 -31 45 0 6 -9 17 -21 25 -11 8 -29 30 -40 48
-12 18 -29 32 -40 32 -14 0 -26 14 -39 45 -11 25 -24 45 -30 45 -5 0 -10 4
-10 9 0 25 172 -44 308 -124 23 -14 47 -25 52 -25 14 0 111 -60 136 -85 91
-86 229 -276 293 -402 18 -34 42 -99 55 -143 13 -44 32 -92 42 -107 31 -46 51
-86 58 -118 4 -16 23 -64 41 -105 43 -96 74 -205 86 -300 6 -41 17 -99 25
-129 11 -35 14 -69 9 -99 -5 -31 -1 -64 12 -108 l18 -64 352 0 353 0 0 1910
c0 1691 -2 1910 -15 1910 -8 0 -14 3 -14 8 5 28 -6 41 -44 56 -23 9 -53 16
-65 16 -12 0 -22 5 -22 10 0 6 -7 10 -16 10 -13 0 -15 7 -11 29 4 19 2 31 -6
34 -8 3 -6 9 6 18 13 11 16 22 11 45 -5 28 -11 32 -60 43 -42 10 -60 20 -84
49 -16 20 -30 42 -30 48 0 6 -7 17 -15 24 -13 10 -23 10 -55 -5 -27 -12 -53
-16 -85 -13 -50 6 -79 27 -102 73 -8 16 -32 47 -52 68 -32 33 -36 44 -36 88 0
43 4 54 28 75 42 36 84 32 407 -36 52 -10 132 -23 178 -28 l82 -8 0 988 0 988
-834 0 c-546 0 -837 -3 -841 -10 -3 -5 -15 -10 -26 -10 -10 0 -19 5 -19 10 0
7 -227 10 -660 10 l-660 0 6 -27 c4 -16 8 -31 10 -35 9 -16 102 -62 131 -65
18 -2 48 -4 66 -6 42 -4 57 -14 57 -36 0 -23 17 -37 55 -47 36 -8 75 -41 75
-63 0 -9 -7 -25 -15 -35 -14 -18 -18 -18 -56 -6 -63 21 -84 41 -70 67 9 17 8
25 -5 37 -15 16 -15 16 -75 -15 -13 -6 -45 -8 -83 -4 -134 14 -233 78 -192
124 9 10 16 23 16 30 0 7 9 24 20 38 11 14 20 30 20 34 0 18 -52 8 -69 -12
-16 -20 -21 -21 -74 -9 -31 6 -57 16 -57 21 0 5 -94 9 -227 9 l-228 0 -15 -31z
m2138 -379 c43 -57 21 -128 -46 -145 -51 -13 -109 34 -119 98 -7 44 34 77 98
77 39 0 48 -4 67 -30z m-2132 -146 c20 -21 33 -25 77 -24 119 1 143 -4 150
-31 4 -16 10 -19 29 -14 13 4 30 14 39 21 22 19 49 17 50 -3 1 -14 2 -14 6 -3
2 8 20 23 39 33 43 21 61 23 45 3 -12 -14 -5 -46 10 -46 5 0 27 7 49 16 35 14
45 15 65 4 19 -10 30 -10 54 0 21 8 52 10 93 6 35 -3 78 -6 97 -6 30 1 32 -1
21 -15 -11 -13 -9 -15 12 -15 13 0 29 5 35 11 17 17 189 18 186 2 -2 -7 4 -13
12 -13 54 0 203 -69 265 -122 50 -43 145 -189 198 -304 47 -103 64 -202 67
-394 3 -158 4 -168 34 -243 30 -75 31 -83 31 -232 l0 -155 -34 0 c-19 0 -47 5
-63 11 -25 10 -67 17 -219 35 -67 8 -432 -6 -413 -16 26 -14 102 -20 289 -24
102 -2 201 -9 220 -15 20 -6 66 -13 104 -15 67 -4 95 -20 96 -53 0 -17 0 -17
-55 7 -26 11 -51 20 -56 20 -5 0 -9 -20 -9 -44 0 -37 4 -45 23 -50 l22 -6 -21
-18 c-21 -16 -22 -26 -24 -179 0 -91 3 -163 8 -163 15 0 39 33 51 72 7 21 16
40 21 43 5 3 16 29 24 58 12 40 13 62 6 88 -8 27 -7 36 5 45 8 6 15 19 15 28
0 18 -15 22 -25 6 -18 -29 -54 3 -41 36 5 13 9 14 21 4 16 -14 35 -5 35 16 0
29 19 13 26 -22 18 -97 -14 -233 -82 -340 -42 -67 -73 -90 -142 -106 -81 -18
-324 -15 -446 7 -191 33 -235 80 -267 288 -17 110 1 210 43 235 15 9 28 19 28
23 0 4 21 17 46 29 27 14 41 26 35 30 -17 10 -99 2 -150 -15 -61 -20 -286 -20
-321 0 -15 9 -19 15 -10 15 12 1 11 3 -3 14 -12 9 -14 16 -7 21 6 3 -10 17
-36 31 -25 13 -49 22 -54 19 -5 -3 -12 0 -16 6 -4 8 -3 9 4 5 8 -5 12 0 12 13
0 12 -4 21 -8 21 -12 0 -72 -30 -72 -36 0 -3 4 -3 9 1 11 6 25 -31 16 -44 -3
-5 5 -12 17 -14 15 -3 11 -5 -13 -6 -19 0 -40 -6 -47 -13 -10 -10 -19 -9 -45
4 -42 21 -185 38 -327 38 -115 0 -137 9 -52 21 l47 6 -42 2 c-41 1 -63 21 -24
21 14 0 17 6 14 23 -4 19 3 25 49 40 58 20 59 20 166 11 39 -4 72 -11 72 -16
0 -6 14 -8 31 -6 21 3 33 0 36 -9 4 -10 8 -11 13 -3 5 8 14 8 36 -1 41 -17 47
-17 66 6 15 18 17 19 23 3 11 -27 25 -11 25 28 0 22 6 37 15 40 18 7 20 60 3
70 -7 5 -8 3 -3 -6 5 -9 4 -11 -3 -6 -7 4 -12 13 -12 21 0 7 -10 17 -22 21
-12 3 -28 12 -35 20 -7 7 -43 15 -80 18 -38 4 -81 11 -97 16 -16 5 -36 6 -45
1 -9 -5 -37 -8 -63 -7 -27 2 -48 -1 -48 -4 0 -10 -57 -23 -105 -25 -31 -1 -54
-11 -97 -43 -32 -23 -62 -42 -69 -42 -15 0 -78 -30 -112 -53 -32 -22 -71 -79
-81 -120 -5 -22 -3 -29 14 -35 34 -13 -121 -46 -174 -38 -40 6 -43 9 -43 39 0
18 8 43 19 56 10 13 18 32 18 42 0 10 7 22 16 27 9 5 20 31 25 58 5 27 14 51
19 52 6 2 10 12 10 22 0 9 7 23 15 30 8 7 15 18 15 24 0 6 11 28 25 48 14 20
25 44 25 53 0 8 4 23 9 33 5 9 20 49 32 87 13 39 26 74 31 80 13 14 9 82 -4
97 -42 44 13 398 62 398 4 0 13 20 19 45 6 25 15 45 21 45 5 0 42 33 82 74 74
74 153 131 218 156 19 7 44 20 55 27 25 17 24 17 51 -13z m3336 -115 c18 -10
57 -80 58 -104 0 -6 -14 -25 -30 -44 -26 -28 -35 -32 -61 -26 -20 5 -34 3 -39
-4 -10 -18 -37 -3 -59 34 -25 43 -29 82 -12 123 21 50 73 58 143 21z m-110
-216 c10 -9 18 -22 18 -30 0 -7 4 -13 10 -13 5 0 16 -12 24 -27 8 -16 25 -40
40 -55 22 -24 33 -28 82 -28 71 0 114 -29 134 -89 11 -35 11 -43 -4 -65 -9
-14 -30 -33 -46 -41 -17 -9 -30 -20 -30 -25 0 -5 15 -41 34 -79 48 -99 71
-200 56 -246 -22 -67 -107 -85 -189 -39 l-47 27 -41 -27 c-22 -15 -46 -38 -54
-52 -22 -42 -103 -60 -129 -30 -19 24 -39 115 -46 212 -6 81 -4 97 14 136 22
45 66 76 113 80 l25 2 -13 68 c-7 38 -20 82 -29 100 -9 17 -18 59 -20 94 -3
55 -1 62 16 67 11 3 24 17 30 31 5 14 17 26 27 26 15 0 16 2 3 10 -8 5 -11 10
-6 10 5 0 18 -7 28 -17z m-1045 -45 c14 -16 20 -37 21 -70 0 -53 -9 -62 -90
-93 -57 -21 -67 -32 -79 -82 -9 -41 12 -90 32 -77 7 4 9 -3 7 -17 -4 -33 -99
-82 -133 -69 -22 8 -55 46 -55 63 0 11 67 77 79 77 6 0 8 7 5 15 -4 8 -14 15
-24 15 -37 0 -78 87 -61 131 9 26 66 89 79 89 4 0 25 9 47 20 57 29 145 28
172 -2z m-49 -439 c12 -8 28 -31 34 -52 10 -33 9 -41 -11 -67 -26 -35 -39 -90
-22 -90 13 0 19 -4 74 -52 l39 -34 0 -99 c-1 -55 -6 -278 -11 -495 -9 -302
-16 -426 -31 -526 -11 -71 -18 -144 -14 -160 3 -17 1 -49 -6 -72 -11 -41 -12
-42 -54 -42 -42 0 -45 2 -65 43 -12 24 -21 61 -21 82 0 21 -9 104 -20 184 -45
329 -50 370 -55 453 -5 91 -4 95 44 128 28 20 27 59 -5 105 -34 50 -43 107
-28 175 17 78 64 187 108 252 26 40 15 58 -36 58 -48 1 -73 18 -99 67 -16 29
-16 33 2 62 10 17 26 31 34 31 8 0 15 4 15 8 0 4 15 24 33 44 28 33 34 35 52
24 11 -7 30 -19 43 -27z m-4328 -215 c0 -8 4 -14 9 -14 16 0 58 -44 66 -68 12
-40 -3 -88 -31 -100 -14 -7 -34 -12 -45 -12 -29 0 -99 47 -100 68 0 9 -2 26
-4 36 -2 12 9 31 29 51 18 17 35 39 39 48 7 19 37 12 37 -9z m1103 -295 c-2
-74 -6 -94 -25 -119 -12 -17 -28 -30 -35 -30 -16 0 -73 -53 -73 -68 0 -5 -7
-13 -16 -16 -22 -8 -54 -8 -54 2 0 4 -10 12 -22 17 -31 13 -34 40 -9 67 12 12
21 26 21 30 0 5 4 7 9 4 5 -3 11 8 15 25 3 17 26 51 51 77 25 25 45 51 45 57
0 13 38 50 60 57 28 10 35 -12 33 -103z m1043 -155 c6 -8 23 -14 38 -14 14 0
26 -4 26 -10 0 -5 9 -10 19 -10 11 0 23 -5 27 -12 5 -8 -2 -9 -27 -4 -19 3
-73 9 -121 13 -48 3 -85 10 -82 14 10 16 -90 9 -176 -12 -106 -27 -117 -35
-87 -60 16 -13 18 -18 7 -19 -10 0 -11 -3 -4 -8 6 -4 16 -17 22 -29 8 -14 25
-24 52 -28 39 -7 48 -20 41 -59 -3 -17 53 -66 76 -66 28 0 29 14 3 40 -23 23
-25 32 -7 29 6 -1 31 -1 55 0 30 1 42 5 42 16 0 14 -11 19 -36 16 -5 0 -18 14
-26 33 -14 28 -14 37 -4 52 12 16 14 15 20 -12 12 -49 44 -74 92 -74 35 0 47
5 68 31 14 17 26 42 26 56 0 23 3 25 32 19 48 -10 103 -39 106 -57 2 -11 -10
-22 -35 -32 l-38 -16 62 1 c76 1 101 15 84 46 -10 18 -9 23 4 28 30 12 -10 84
-46 84 -10 0 -20 4 -23 8 -7 11 110 -3 163 -19 33 -10 47 -21 55 -41 6 -16 14
-28 18 -28 4 0 8 -18 8 -40 0 -27 -4 -40 -13 -40 -8 0 -21 -17 -31 -37 -23
-53 -65 -203 -57 -203 10 0 45 77 76 165 13 39 24 62 25 52 0 -26 -44 -148
-75 -203 -57 -104 -109 -136 -252 -155 -106 -14 -278 -6 -397 20 -154 32 -197
89 -212 278 -12 157 49 245 183 268 40 6 70 25 41 25 -10 0 -10 2 1 9 22 14
264 1 277 -15z m-1060 -105 c3 -6 13 -38 20 -72 20 -87 19 -86 27 -93 4 -4 7
-13 7 -21 0 -7 7 -30 15 -50 20 -48 36 -33 39 38 2 45 6 54 22 54 30 0 45 -42
39 -110 -3 -32 -11 -63 -18 -68 -7 -5 -8 -10 -2 -13 6 -2 9 -31 7 -67 -3 -50
0 -68 13 -81 18 -18 14 -46 -7 -46 -21 0 -48 38 -65 91 -16 49 -26 56 -53 39
-16 -10 -40 5 -40 25 0 6 9 22 20 35 22 25 25 36 11 45 -5 3 -12 -3 -16 -14
-20 -64 -229 -101 -294 -53 -38 28 -49 81 -26 132 19 43 77 110 94 110 13 0
101 83 101 96 0 30 89 50 106 23z m4374 -179 c74 -18 113 -50 129 -105 8 -27
10 -50 5 -54 -5 -3 -22 -21 -38 -40 l-28 -35 23 -8 c13 -5 87 -12 164 -15 77
-3 142 -10 143 -14 2 -5 12 -9 23 -9 10 0 19 -7 19 -15 0 -30 -34 -101 -62
-128 l-29 -28 -142 6 c-149 7 -243 20 -252 36 -4 5 -19 9 -36 9 -20 0 -29 5
-29 16 0 9 -10 25 -22 36 -13 11 -24 24 -24 29 -1 5 -2 14 -3 19 0 6 -10 10
-21 10 -24 0 -36 22 -45 81 -5 35 -3 48 9 58 10 8 13 22 10 41 -4 19 -1 32 11
41 9 8 24 22 33 33 57 63 58 63 162 36z m-1040 -1244 c31 -9 45 -19 44 -30 -1
-9 9 -24 22 -33 14 -9 24 -24 23 -37 -1 -17 -2 -17 -6 -3 -6 21 -17 22 -33 2
-7 -8 -18 -15 -24 -15 -6 0 -13 -8 -14 -17 -13 -121 -29 -168 -69 -197 -52
-38 -133 17 -133 91 0 32 34 141 60 193 11 22 29 38 51 46 19 7 34 13 34 13 0
0 20 -5 45 -13z m252 -96 c16 -25 44 -26 53 -2 6 15 8 16 18 1 7 -9 28 -24 47
-34 19 -10 44 -27 54 -38 30 -31 30 -87 0 -87 -8 0 -17 -6 -20 -13 -3 -10 -20
-12 -57 -9 -40 3 -56 0 -66 -12 -7 -9 -18 -16 -23 -16 -5 0 -21 -13 -35 -30
-13 -16 -31 -30 -38 -30 -19 0 -64 46 -76 77 -12 32 -9 135 4 151 8 10 7 16
-2 22 -15 9 -5 18 37 30 50 15 91 11 104 -10z m-914 -261 c16 -27 18 -37 9
-73 -6 -22 -13 -43 -16 -46 -6 -5 -41 -110 -41 -123 0 -17 42 -5 47 12 6 24
68 68 112 81 62 18 111 -19 99 -77 -3 -15 -12 -18 -58 -15 -45 3 -61 -1 -88
-21 -19 -15 -41 -23 -55 -20 -12 2 -31 -4 -42 -14 -26 -23 -49 -27 -77 -12
-17 9 -24 9 -34 -5 -6 -9 -38 -22 -71 -28 -58 -11 -60 -10 -111 23 -63 41 -95
99 -86 150 9 47 21 59 59 59 24 0 34 5 38 19 6 25 0 31 -30 31 -32 0 -83 27
-83 44 0 19 30 25 119 21 60 -2 91 -9 130 -28 l51 -26 0 23 c0 30 16 43 60 49
19 2 38 5 42 5 3 1 15 -12 26 -29z m650 -146 c27 -25 41 -72 30 -108 -8 -30
-74 -85 -101 -85 -20 0 -56 43 -66 78 -12 40 9 113 35 123 34 13 81 9 102 -8z"/>
<path d="M3658 4627 c-28 -6 -50 -17 -53 -26 -5 -16 -49 -41 -72 -41 -16 0
-27 -43 -19 -75 5 -21 12 -25 46 -25 23 0 40 5 40 11 0 7 7 8 18 4 9 -4 69 -8
132 -9 103 -1 118 -3 144 -23 16 -13 41 -23 56 -23 15 0 29 -3 32 -6 10 -9
138 -12 132 -3 -3 5 0 9 5 9 6 0 11 -4 11 -10 0 -17 45 -4 48 14 6 31 -18 70
-69 109 -27 20 -54 37 -61 37 -7 0 -21 7 -31 14 -10 8 -26 12 -37 9 -10 -3
-32 5 -50 19 -28 20 -44 23 -128 25 -53 0 -118 -4 -144 -10z"/>
<path d="M3613 4300 c-43 -10 -66 -29 -60 -51 3 -11 -8 -30 -29 -50 -42 -41
-43 -55 -3 -63 43 -8 51 -8 44 4 -3 6 -15 10 -26 10 -16 0 -10 9 26 40 25 22
50 40 54 40 5 0 14 -20 20 -45 13 -52 55 -81 100 -70 35 9 81 54 81 79 0 45
14 51 66 25 59 -28 120 -68 108 -70 -5 -1 -18 -2 -29 -3 -27 -1 -25 -30 2 -34
15 -2 33 8 53 28 35 36 36 41 13 78 -42 66 -96 92 -185 91 l-63 -1 55 -12 c60
-13 126 -42 137 -59 4 -7 0 -8 -13 -2 -69 30 -135 46 -185 47 -59 1 -79 13
-36 21 12 2 -5 4 -38 5 -33 0 -75 -4 -92 -8z"/>
<path d="M1533 5471 c-29 -21 -43 -40 -50 -68 -12 -46 0 -89 27 -96 30 -8 100
34 123 74 21 36 21 37 3 78 -23 50 -46 53 -103 12z"/>
<path d="M2543 3298 c-22 -10 -33 -48 -15 -48 5 0 15 -12 23 -27 19 -35 140
-153 158 -153 8 0 11 -6 7 -16 -3 -8 -2 -13 3 -9 5 3 17 -3 27 -12 16 -16 18
-16 31 4 13 19 18 20 46 10 18 -6 37 -18 44 -26 8 -10 12 -11 13 -4 0 13 73 6
78 -9 5 -11 53 -10 72 2 12 8 11 10 -8 10 -29 0 -79 25 -84 42 -3 7 -11 13
-19 14 -8 0 -21 2 -30 2 -9 1 -20 13 -23 26 -5 22 -10 24 -41 19 -35 -6 -35
-6 -35 33 l0 39 48 -2 c26 -2 42 0 35 3 -7 3 -10 11 -7 18 4 10 -16 15 -78 20
-93 7 -181 29 -158 39 9 4 4 5 -10 4 -14 -1 -32 5 -40 15 -12 13 -20 14 -37 6z"/>
<path d="M3490 3149 c0 -12 -8 -23 -20 -26 -10 -3 -22 -14 -25 -24 -7 -21 -35
-25 -52 -8 -7 7 -12 1 -16 -20 -4 -19 -13 -31 -22 -31 -9 0 -14 -4 -11 -9 5
-8 97 2 115 14 5 3 12 1 16 -5 12 -20 56 -9 91 23 20 17 50 34 67 37 25 4 31
10 29 25 -6 44 -9 45 -92 45 -75 0 -80 -1 -80 -21z"/>
<path d="M5505 598 c2 -57 7 -151 11 -209 4 -67 2 -113 -4 -125 -6 -10 -13
-31 -17 -47 -3 -15 -12 -27 -20 -27 -20 0 -30 -21 -14 -31 11 -6 10 -11 -4
-27 -9 -10 -17 -24 -17 -30 0 -6 -6 -15 -14 -19 -8 -4 -15 -17 -17 -27 -5 -23
-29 -34 -29 -13 0 9 6 22 14 30 30 30 62 138 36 122 -5 -3 -7 -12 -3 -20 3 -9
-1 -15 -11 -15 -19 0 -20 4 -4 30 20 31 -1 70 -45 88 -56 22 -52 32 -91 -200
l-13 -78 101 0 101 0 27 68 c31 76 55 166 62 232 2 25 7 64 11 86 12 73 -30
314 -55 314 -6 0 -8 -42 -5 -102z"/>
<path d="M4124 508 c-4 -13 -2 -24 4 -26 15 -5 3 -32 -14 -32 -8 0 -17 7 -20
15 -4 8 -13 15 -21 15 -13 0 -14 -12 -8 -80 7 -77 6 -80 -14 -80 -28 0 -27
-18 2 -22 17 -2 23 -10 25 -39 2 -27 10 -39 32 -53 17 -9 30 -24 30 -31 0 -24
32 -54 70 -66 19 -7 37 -15 40 -18 20 -24 52 -30 100 -19 36 8 56 8 72 1 36
-17 58 -23 58 -15 0 4 24 5 54 4 45 -3 55 -7 59 -24 5 -17 11 -20 35 -15 18 4
37 1 48 -8 15 -12 71 -14 282 -15 l262 0 0 22 c0 12 -10 32 -22 43 -13 11 -28
29 -34 40 -6 11 -28 29 -49 40 -21 11 -52 32 -69 48 -17 15 -42 27 -58 27 -15
0 -29 4 -32 9 -3 4 -32 14 -65 20 -36 7 -61 18 -65 27 -3 9 -13 14 -20 11 -8
-3 -26 3 -39 14 -28 21 -47 25 -47 8 0 -8 -4 -8 -12 -1 -7 6 -55 11 -107 11
-76 1 -100 5 -127 22 -26 16 -37 18 -54 9 -11 -6 -20 -20 -20 -31 0 -12 -5
-19 -12 -17 -8 3 -11 21 -9 52 l3 48 -34 -2 c-56 -3 -58 -2 -58 40 0 29 4 40
15 40 9 0 15 9 15 25 0 23 -4 25 -40 25 -22 0 -40 -4 -40 -10 0 -5 -18 -10
-40 -10 -22 0 -40 5 -40 10 0 19 -29 10 -36 -12z"/>
</g>
</svg>
